<svg xmlns="http://www.w3.org/2000/svg" width="16" height="18"><path d="M15.973 5.277q.002-.45-.196-.797a1.5 1.5 0 0 0-.578-.562C13.074 2.691 10.945 1.468 8.82.242c-.574-.332-1.129-.32-1.699.016-.848.5-5.086 2.93-6.348 3.66-.52.3-.773.762-.773 1.36v7.398c0 .297.063.554.188.781q.193.35.585.578c1.262.735 5.5 3.16 6.348 3.66.57.336 1.125.348 1.7.016 2.124-1.227 4.253-2.45 6.378-3.676.266-.152.461-.348.59-.578q.183-.341.184-.781z" style="stroke:none;fill-rule:nonzero;fill:#a179dc;fill-opacity:1"/><path d="M8.012 8.953.188 13.457q.193.35.585.578c1.262.735 5.5 3.16 6.348 3.66.57.336 1.125.348 1.7.016 2.124-1.227 4.253-2.45 6.378-3.676.266-.152.461-.348.59-.578z" style="stroke:none;fill-rule:nonzero;fill:#280068;fill-opacity:1"/><path d="M15.973 5.277q.002-.45-.196-.797L8.012 8.953l7.777 4.504q.183-.341.184-.781z" style="stroke:none;fill-rule:nonzero;fill:#390091;fill-opacity:1"/><path d="M12.617 7.27v.84h.844v-.84h.422v.84h.84v.421h-.84v.844h.84v.418h-.84v.844h-.422v-.844h-.844v.844h-.422v-.844h-.84v-.418h.84v-.844h-.84V8.11h.84v-.84Zm.844 1.261h-.844v.844h.844Zm0 0" style="stroke:none;fill-rule:nonzero;fill:#fff;fill-opacity:1"/><path d="M8.027 3.04c2.2 0 4.118 1.19 5.141 2.964l-.008-.016-2.586 1.489A2.95 2.95 0 0 0 8.063 6.02h-.036a2.957 2.957 0 1 0 2.578 4.406l-.011.023 2.578 1.492a5.94 5.94 0 0 1-5.078 2.973h-.067A5.93 5.93 0 0 1 2.88 11.93a5.9 5.9 0 0 1-.79-2.953 5.94 5.94 0 0 1 5.938-5.938m0 0" style="stroke:none;fill-rule:nonzero;fill:#fff;fill-opacity:1"/></svg>