<svg xmlns="http://www.w3.org/2000/svg" version="1.1" viewBox="0 0 300 194"><path d="M291 53c4 1 5 4 7 7 6 13 3 33-2 46l-1 2c-9 27-26 54-49 70h-2v2c-9 7-20 13-31 14l8-7c16-10 31-24 41-40l2-3 13-25 1-3c8-18 11-37 12-57l1-6Z" fill="#2A5C61"/><path d="m9 53 1 9c3 44 20 83 53 114a167 167 0 0 0 24 17v1c-11 0-23-7-31-14v-2l-2-1c-25-13-41-45-50-71l-1-4a79 79 0 0 1-4-27c1-7 2-15 7-21l3-1Z" fill="#2B5C61"/><path d="m267 10 4 1v2l3 1c9 10 11 24 10 37v2c0 18-3 34-8 51l-1 4c-8 23-24 49-44 63h-2l4-8h2l1-2 4-6c13-19 24-40 28-63v-2a181 181 0 0 0 0-73l-1-4v-3Z" fill="#2D5E63"/><path d="M33 10a5323 5323 0 0 1-3 19 167 167 0 0 0 32 128l3 6h2c4 4 4 4 4 8-5-1-8-4-11-8l-2-2A157 157 0 0 1 16 50c-1-12 0-23 8-33l1-2 2-2h2v-2l4-1Z" fill="#295B61"/><path d="M41 57h218v6H41v-6Z" fill="#A8A9A9"/><path d="m160 71 5 1c4 4 6 9 9 14a872 872 0 0 0 6 11l4 6 1-31h7l1 3v8a422636831 422636831 0 0 0 0 35h-8c-3 0-3 0-5-2l-4-7-3-6-3-5-7-11-1 31h-8a9301 9301 0 0 1 0-35v-8c0-4 2-4 6-4Z" fill="#101111"/><path d="M91 166h14l2 7 3-7h5l2 7 2-7h24l1 2 3-2h8l3 3 2-3 4 1v6h5v-6l5-1v18l-5-1v-6h-5v7h-5l-1-3-1 1c-2 2-4 2-6 2h-3c-3 0-3-1-5-3l-1-5v-2l1-4h-5v14h-4v-14h-6v14h-4l-1-13-4 13h-5l-1-7h-2l-1 7h-5l-1-4-1-3-1-5-3 2 2 2v6c-3 3-3 2-7 2h-3l-4-1-1-6 2-2-2-2c0-4 1-7 5-7Zm9 2 1 3Zm-8 2v2l4 1-1-3h-3Zm57 0c-2 2-2 2-2 5l1 5h5l1-4 5 1-1-4h-3l-2-3h-4Zm-58 7v3h6l-3-3h-3Z" fill="#575A5A"/><path d="M70 128h12a9458 9458 0 0 0 19 0h14a33716 33716 0 0 1 118 0l1 5-4 1h-12a9458 9458 0 0 0-19 0h-14a33716 33716 0 0 1-118 0l-1-5 4-1Z" fill="#ABACAC"/><path d="M94 73c6 3 8 7 10 12v3l-3 1h-6l-1-3c-1-4-2-4-5-6H78c-4 4-7 7-7 13 0 5 0 9 3 14v2c5 2 9 3 14 2 4-2 5-3 6-8l1-3h9c0 7-2 11-7 16-5 3-11 5-17 4-8-2-12-5-16-11-4-7-4-15-2-22l1-3 1-2c3-5 6-8 11-10 7-2 13-2 19 1Z" fill="#2B2C2C"/><path d="M141 74c4 2 6 5 8 9v6h-8l-4-6-3-4-15 3c-3 6-4 13-2 19l4 9c4 2 8 1 13 1l3-1 2-5v-3l1-2h9c0 7-1 10-6 15-5 4-10 6-16 5-7-1-12-3-17-9-4-7-5-15-3-22 2-8 6-14 14-17 7-2 14-2 20 2Z" fill="#242525"/><path d="M214 72h9l1 3a39436 39436 0 0 0 9 21l1 2 6 16 1 4h-9l-5-10-19-1-3 9-1 2h-9l8-21 1-3 10-22Zm3 12a1062 1062 0 0 0-4 9l-1 6h12l-5-15h-2Z" fill="#282828"/><path d="M89 142c11 0 11 0 15 3h2v-2c3-2 7-1 10-1l4 3 2-3 4 1 1 12 4 1 1-14h24v18h-4l-1-13h-5v13h-4v-13h-5v5l-1 3-2 5h-8l-4-2v-3h-2l-1 2-2 3h-8l-4-1-3-7 2 8h-5l-2-6h-3v6h-5v-18Zm21 4c-2 3-2 4-2 8 2 2 2 2 5 2h2l1-8-2-2h-4Zm-16 1v2l5-1v-1h-5Z" fill="#7D7F7F"/><path d="M181 166h5l4 7 1-7 5 1 1 2 1-1c2-2 4-2 6-2h3c3 0 4 1 6 4v14h-10c-3 0-3 0-5-2l-1-1-1 3h-5l-5-7-1 7h-4v-18Zm20 6v5l1 3h5l1-2-4-2 4-3-1-3c-4 0-4 0-6 2Z" fill="#838686"/><path d="M132 142h24v18h-4l-1-13h-5v13h-4v-13h-5v5l-1 3-2 5h-8l-4-2v-14h3v11l6 1 1-14Z" fill="#606262"/><path d="M205 28c12 0 12 0 16 2 3 3 3 5 3 9s-1 6-4 9l-9 1h-6V28Zm6 5v11h6c2-2 1-5 1-7l-2-4h-5Z" fill="#505050"/><path d="M141 2h3l5 2 1 6h-5l-2-3h-3v2l2 1h2l2 1 5 4-1 6c-2 2-4 3-7 3-6 0-6 0-9-2l-1-7 5 1 1 2 6 1v-3l-2-1h-3l-3-1-4-4 1-7 7-1Z" fill="#565858"/><path d="M190 2c3 2 5 3 6 7 0 4 0 7-2 10s-4 5-8 5-6-1-10-3c-2-5-2-11 0-16 4-4 9-4 14-3Zm-8 6c-3 3-2 4-2 8l2 3h6c3-3 3-4 3-8-1-3-1-3-4-5-3 0-3 0-5 2Z" fill="#646566"/><path d="M114 28c12 0 12 0 15 2 2 2 2 2 2 6l-2 6 2 4v3h-5l-3-5-4-3v8h-5V28Zm5 5v4h5l2-3-4-1h-3Z" fill="#505151"/><path d="M191 28h11l-1 5h-8v3h8v4h-8v4h8l1 5a1502 1502 0 0 1-11 0l-4-1V31c0-3 1-3 4-3Z" fill="#747676"/><path d="m168 2 4 4v5l-5-1-2-3-6 2v8l7 2 1-5h5l-1 7c-3 3-6 3-10 3-3-1-5-1-7-4-2-5-2-7-1-12 3-7 9-7 15-6Z" fill="#363737"/><path d="m115 2 5 2 1 7-5-1-2-3-6 2-1 4v4h2v2h6l1-5h5l-1 7c-3 3-6 3-10 3l-7-4c-2-5-2-9 0-14 3-5 7-5 12-4Z" fill="#626464"/><path d="m89 28 4 4-1 5-4-1-2-3h-6v11h6l2-4h5l-2 8c-3 2-5 2-8 2-4-1-6-2-9-6-1-5-1-10 2-14 4-3 8-3 13-2Z" fill="#4B4C4C"/><path d="M96 28h14l-1 5h-8v3h9v4h-9v4h9l1 4-4 1H96V28Z" fill="#484949"/><path d="m160 166 4 1v6h5v-6l5-1v18l-5-1v-6h-5v7h-5l-1-3-1 2h-2v-2h-6l2-1 3-4h4v-4l1-3 1-3Z" fill="#6B6C6C"/><path d="m186 142 4 4v14h-10c-3 0-3 0-5-2-3-4-3-7-2-12 3-5 8-5 13-4Zm-8 5v7l4 3 3-3h-4l1-4 3-1v-2h-7Z" fill="#404040"/><path d="m203 142 5 1v7l3 1v2l1 7h-14l-2-6 2-5v-2c0-4 1-5 5-5Zm-2 12v2l3-1-3-1Z" fill="#717373"/><path d="M161 142h2l4 7 1-7h4v18h-5l-5-9-1 9h-4v-17l4-1Z" fill="#6E7070"/><path d="M181 166h5l4 7 1-7h4v18c-5-1-5-1-7-4l-2-3-1 7h-4v-18Z" fill="#6F7373"/><path d="M161 28h15l-1 5h-9v3h9v4h-9v9h-5V28Z" fill="#1F1F1F"/><path d="M133 28h17l-1 5h-5v16h-5V33h-5l-1-5Z" fill="#454646"/><path d="M157 72h8l2 5h-2l-1-2-8-1v43h5V81l2 1-1 36h-8a9301 9301 0 0 1 0-35v-8c0-3 1-3 3-3Z" fill="#767879"/><path d="M185 72h7l1 3v8a422636831 422636831 0 0 0 0 35h-11l-1-3h2v2h8V74h-5v35l-2-1 1-36Z" fill="#6D6E6E"/><path d="M89 142h11c2 3 2 3 2 7h-2l-1-2-6-1v4h6l1 6-6-2v6h-5v-18Z" fill="#4D4F4F"/><path d="M241 172v3l-4 4-4 4h5c-7 6-15 11-25 11 3-4 7-6 11-8l17-14Z" fill="#68878A"/><path d="M133 143h2v16c-2 2-4 1-6 1h-3l-4-2v-14h3v11l8 1v-13Z" fill="#353535"/><path d="M125 2h5v21l-4 1-1-3V2Z" fill="#4B4C4C"/><path d="M179 28h5v21h-5V28Z" fill="#383838"/><path d="M154 28h4v21l-5-1V31l1-3Z" fill="#454646"/><path d="M170 166h4v18h-4v-8h-8v6h-1v-14h1v6h8v-8Z" fill="#373838"/><path d="M105 6h1l1 11h2v2h6l1-5h5c0 4 0 5-2 8h-9l-5-1c-2-3-1-5-1-8v-3l1-4Z" fill="#4B4C4C"/><path d="M189 29h12v2h-10v6h9v2h-9v7h10v2h-12V29Z" fill="#0A0A0A"/><path d="m168 2 4 4v5l-5-1-2-3-5 1-2 7h-1l1-9-4 2 1-4c4-3 8-3 13-2Z" fill="#6E7071"/><path d="M141 2h3l5 2 1 6h-5l-2-3h-5l-1 2-1-2v6c-2-2-3-3-3-5 0-6 3-6 8-6Z" fill="#0F0F0F"/><path d="M205 28c12 0 12 0 15 2l2 2h-3l1 2c0 3 0 4-2 7l-2-7-5-1v11l4 1h-5V32l5-1-8-1-1 19h-1V28Z" fill="#8B8D8D"/><path d="m100 143 6 2v13c-3-1-3-3-4-6l2 8h-5l-2-5 3 1-1-6h-6v-4h6l1 3h2l-2-6Zm-6 4v2l5-1v-1h-5Z" fill="#767878"/><path d="M204 144h3v6h-3v2h-3l-1 5h5l-1-4 4 1 1-2 1 7h-8l-4-1 1-7 1-3v-3l1 3h3v-4Z" fill="#121212"/><path d="M114 28h1v20h3v-7l-1-3v-7h8v2h-6v4h5l3 5h-6l-2-1v8h-5V28Z" fill="#686A6A"/><path d="M69 181a7005 7005 0 0 1 12 8l2 1 2 2 2 1v1c-6 0-10-2-15-4l-2-1-6-5 6 1-1-4Z" fill="#67888B"/><path d="M205 166h4l2 6-8-1c-2 3-3 5-3 9h-2l-1-6v-3l1-4 7-1Z" fill="#363636"/><path d="M176 7h3v9h2l2 3 7 1v2h-7l-7-2-1-7v-3l1-3Z" fill="#292A2A"/><path d="M192 167h3v17l-5-1-3-7 1-3v2l3 1 1-9Z" fill="#262626"/><path d="m206 29 11 1v1h-8v15h8l-2 2h-9V29Z" fill="#0D0D0D"/><path d="M97 176v2l3 5c-2 2-4 1-6 1h-3l-4-1-1-6c4-3 6-2 11-1Zm-6 1v3h6l-3-3h-3Z" fill="#545555"/><path d="M161 28h15l-1 5h-9v3h9l-1 4v-3h-9v-6h9v-2h-12v20h-1V28Z" fill="#8B8E8F"/><path d="M115 30h9l5 1-1 5-1-3h-2v-2h-8v7h6v1h-5v9h-3V30Z" fill="#0A0A0A"/><path d="m59 155 6 8h2c4 4 4 4 4 8-5-1-8-4-11-8l-1-1-4-4 2-1 2 1v-3Z" fill="#7C9699"/><path d="M175 166h4v18h-4v-18Z" fill="#444545"/><path d="m240 155 1 3h2c-2 5-7 10-12 12l-2 1 4-8h2l1-2 4-6Z" fill="#587C7F"/><path d="M88 40h5l-2 8c-3 2-5 2-8 2l-7-3v-3l2 1v2l9 1v-2h-6l1-2 5-1 1-3Z" fill="#5B5E5E"/><path d="m187 144 3 2v14h-10c-3 0-3 0-5-2l14 1v-8h-7v2h4l-1 4-3-1 2-1-3-1 1-5h3l1-2 1-1v-2Z" fill="#7B7C7C"/><path d="M101 166h4l2 12h2v4l-4-1v-3h-2v-3l-1-3-2-1 1-5Z" fill="#686969"/><path d="M144 170h2v8h2l1 2 6 1v3h-7l-4-2-1-7 1-3v-2Z" fill="#303131"/><path d="M106 145h2v8l1 3a70 70 0 0 0 8 1v3h-10c-2-4-2-5-2-9v-2l1-4Z" fill="#242525"/><path d="M135 71v1h-3c-8 1-12 3-18 9l-2 2-3 4-1-2c2-6 7-10 13-13l14-1Z" fill="#5E5F5F"/><path d="m136 6 4 3 4 2h2l2 1-3 1v3l-9-3-1-6 1-1Z" fill="#57595A"/><path d="m108 171 2 3 1-3h2v6h-2l-1 7h-5l-1-4v-2l2 3 3 1-3-4v-5l2-2Z" fill="#646565"/><path d="M122 144h3v5l1 3 1 5 4 2h-8l-1-4v-11Z" fill="#1E1E1E"/><path d="M130 167h12v2h-5v14h-2v-14h-5v-2Z" fill="#0B0B0B"/><path d="M138 143h12v2h-5v14h-2v-14h-5v-2Z" fill="#101010"/><path d="M158 144h4v10l-1 4v2h-3v-16Z" fill="#252525"/><path d="m77 33 1 11h3v2h6v2l-9-1v-2l-3-1V34l2-1Z" fill="#121212"/><path d="M159 167h1v17l-2-3-1 2h-2v-2h-6l2-1 3-4h4l1-9Z" fill="#898C8C"/><path d="m147 166 10 1 1 7-4-1-1-4h-6v-3Z" fill="#474848"/><path d="M79 28c9-1 9-1 13 2l1 5-1 2-4-1-2-5 1-1-8-1v-1Z" fill="#565858"/><path d="M105 6h1l1 11h2v4h7v1h-7l-4-1c-2-3-1-5-1-8v-3l1-4Z" fill="#161616"/><path d="M133 15h4v5h7v3l-10-1-1-7Z" fill="#1E1F1F"/><path d="m159 3 11 1c2 2 2 2 2 5v2h-4l-2-5-7-1V3Z" fill="#484949"/><path d="M204 144h3v6h-3v2h-3l-2 4 1-11 1 3h3v-4Z" fill="#101010"/><path d="m203 142 5 1v7h-1v-6h-3v4l-6 1v-5c2-2 2-2 5-2Z" fill="#616363"/><path d="M179 142h7l3 6-10-1-1-3-2-1 3-1Z" fill="#494B4C"/><path d="M141 2h5v1h-9v2h6l-5 2-1 2-1-2v6c-2-2-3-3-3-5 0-6 3-6 8-6Z" fill="#676969"/><path d="M205 175h7v8h-11l-1-2h4l4-1 2-4h-5v-1Z" fill="#0B0B0B"/><path d="m122 142 4 1v12h-1v-11h-3v11h-2l-1-5v-3l1-4 2-1Z" fill="#A5A9A9"/><path d="M185 2h5l1 2h-10l-1 2 4 1-1 1c-3 3-3 5-3 8h-1V7h-3V5c3-3 5-3 9-3Z" fill="#6F7272"/><path d="m33 10-1 9-2-4c-4 3-4 3-6 7h-2l5-9h2v-2l4-1Z" fill="#5A7E82"/><path d="M110 3h4l3 1 4 2v5h-4l-1-2-1-3-5-1V3Z" fill="#333434"/><path d="m69 181 5 3v3h2v2c-5 0-8-1-12-4h6l-1-4Z" fill="#577B7F"/><path d="M91 166h7l2 4-3-2-5-1v2l3 1h-3v2l2 1-4-1v-3l-4 4c1-7 1-7 5-7Z" fill="#797B7B"/><path d="M92 145h6v1h-5v4h6l1 6-3-1v-2h-4v6h-1v-14Z" fill="#292929"/><path d="M7 53h2l1 12v7H9L8 57l-4 1 3-5Z" fill="#769194"/><path d="M145 78c2 1 3 3 3 5l1 6h-8l-2-6 3 2v2h5v-5h-2v-4Z" fill="#646869"/><path d="M125 42h4l2 7h-5l-2-5 1-2Z" fill="#464747"/><path d="M169 143h2v16h-3l-1-4h1l1-12Z" fill="#101010"/><path d="m204 150 7 1v4l-6-1v3h-5l1-5h3v-2Zm-3 4v2l3-1-3-1Z" fill="#646667"/><path d="m223 186 2 1-2 2 1 3-11 2 10-8Z" fill="#779497"/><path d="M110 143h8l1 4v8l-2-1-1-7-6-2v-2Z" fill="#313131"/><path d="M182 167h3l-1 16h-2v-16Z" fill="#111"/><path d="M243 151h3l2 3-5 5-2-1v-5l2-2Z" fill="#487176"/><path d="M109 2h3a345922294 345922294 0 0 0 6 2l-8-1v2h2c3 0 3 0 5 2l-1 3-2-3h-6l-2-4 3-1Z" fill="#68696A"/><path d="m114 146 3 1v3l2 5v-6h1v8l-3 2-2-9-1-4Z" fill="#525353"/><path d="m110 168 4 1 1 9-2-1v-6h-2l-1 6h-1l1-9Z" fill="#0E0E0E"/><path d="M30 19h1l-1 15v2l-1 5h-1V31c0-4 0-8 2-12Z" fill="#769295"/><path d="M103 169c3 3 3 5 4 9h2v4l-4-1-2-12Z" fill="#0D0D0D"/><path d="M59 155c3 2 3 2 4 5v3c-3 0-4-1-6-4l-2-2 4 1v-3Z" fill="#587C80"/><path d="M182 151h7v8h-2l-1-6h-4v-2Z" fill="#141414"/><path d="M233 163h2v2l2 1c-6 5-6 5-8 5l4-8Z" fill="#889FA1"/><path d="m291 53 4 2-3 1-1 16h-1v-9l1-10Z" fill="#859B9D"/><path d="M197 170h3v10h-2c-2-3-1-6-1-10Z" fill="#191919"/><path d="m218 31 4 1v12c-3-3-3-5-3-9l-1-4Z" fill="#0D0D0D"/><path d="M167 14h5v5l-2 1-1-3-2 3h-6v-1h5l1-5Z" fill="#6A6B6C"/><path d="m229 185 2 1v2l-7 3-2-2c4-4 4-4 7-4Z" fill="#416D71"/><path d="m192 9 2 1v10h-3v-7l1-2V9Z" fill="#161617"/><path d="M155 72h10l2 5h-2l-1-2h-4l-4-1-1-2Z" fill="#757878"/><path d="M88 169h2l1 3 3 1v2h-6l-1-5 1-1Z" fill="#212121"/><path d="M130 167h12v2h-12v-2Z" fill="#131313"/><path d="M119 166h3v7l-3 2v-9Z" fill="#303030"/><path d="M217 80h2l2 4v8l-2-8h-2l-1 3 1-7Z" fill="#686969"/><path d="m209 167 3 1 1 5-5 1h-3l3-1 1-2 2 1-2-5Z" fill="#909292"/><path d="M145 167h2v2h6l-2 1c-3 2-3 4-4 8h-1l-1-11Z" fill="#7A7E7E"/><path d="m97 155 6 1 1 4h-5l-2-5Z" fill="#5B5D5D"/><path d="m146 3 3 1 1 6h-5l-2-4 5 2-2-5Z" fill="#737575"/><path d="m136 6 2 5h4v2h-6l-1-6 1-1Z" fill="#0C0C0C"/><path d="M204 144h3v6h-5v-2h2v-4Z" fill="#1D1D1D"/><path d="M47 136c3 2 4 5 6 8v2l-5-3-1-7Z" fill="#6A898D"/><path d="m92 167 7 1 1 4h-3v-2l-5-1v-2Z" fill="#191919"/><path d="M133 15h4l-1 7-3-2v-5Z" fill="#434545"/><path d="M198 168h5l3 1h2l-1 2-5 1-2 2v-4l-3-1 1-1Z" fill="#7E8080"/><path d="M208 152h1v6h-4l-1-5 4 1v-2Z" fill="#080808"/><path d="M181 3h7l1 2-9 1 1-3Z" fill="#111"/><path d="m208 180 2 2-3 1h-6l-1-2 8-1Z" fill="#161616"/><path d="M110 166h5v6l-2-3-3-1-1 3 1-5Z" fill="#5F6060"/><path d="M179 156h7l1 3h-8v-3Z" fill="#2B2C2C"/><path d="M93 144h8l1 5h-2l-2-3-5-1v-1Z" fill="#0E0E0E"/><path d="m77 33 1 9h-2l-1-8 2-1Z" fill="#090909"/><path d="M159 3h8l2 2h-10V3Z" fill="#0F0F0F"/><path d="M118 176v7h-3v-4h2l1-3Z" fill="#0E0E0E"/><path d="M81 190c5 2 5 2 6 4l-8-1 2-1v-2Z" fill="#869FA1"/><path d="M111 171h2v6h-2l-1 2 1-8Z" fill="#717474"/><path d="M116 145h3v10l-2-1-1-5v-4Z" fill="#0C0C0C"/><path d="m33 10-1 9h-1v-6h-2v-2l4-1Z" fill="#889FA1"/></svg>