<svg xmlns="http://www.w3.org/2000/svg" version="1.1" viewBox="0 0 512 512"><path d="m46 0 143.875-5.125 44.882-2.262c112.493-3.45 112.493-3.45 154.331 34.52 33.935 32.36 43.493 69.92 44.77 115.058.547 23.654-.581 47.26-1.953 70.868-.658 11.46-1.1 22.914-1.402 34.39l-.065 2.477c-.107 4.107-.21 8.213-.312 12.32-.839 33.615-2.272 67.18-4.127 100.754l-2.514-1.703c-1.76-1.185-3.517-2.315-5.36-3.368-5.682-3.257-11.687-6.9-13.981-13.329-1.37-7.085-1.024-14.28-.848-21.459.004-2.415.002-4.83-.007-7.246-.003-5.855.06-11.707.157-17.562.108-6.817.13-13.634.147-20.452.033-12.157.132-24.312.274-36.468.138-11.8.244-23.6.308-35.403l.012-2.208.057-10.968c.155-30.28.432-60.56.755-90.84h-80V21H67v410h146c4 15 4 15 5 21H46V0Zm370 373c4.239 4.072 7.97 8.45 11.688 13l1.874 2.285c4.402 5.388 8.665 10.863 12.875 16.402 2.959 3.86 6.045 7.613 9.125 11.375 3.99 4.884 7.94 9.788 11.75 14.813l2.176 2.867C467 436 467 436 467 438c-14.686 2.443-29.412 4.377-44.188 6.188l-6.677.826c-5.378.665-10.756 1.327-16.135 1.986l-.511 1.8c-1.906 6.543-4.165 12.889-6.614 19.247l-1.176 3.075c-.815 2.129-1.632 4.256-2.45 6.383-1.25 3.248-2.492 6.498-3.733 9.749l-2.391 6.23-1.118 2.927c-1.798 4.66-3.666 9.174-6.007 13.59-4.054-3.898-7.606-8.056-11.125-12.439l-1.722-2.132a1312.888 1312.888 0 0 1-12.056-15.207c-3.353-4.289-6.75-8.542-10.16-12.786C335.527 460.7 330.24 453.873 325 447c1.306-2.958 2.577-4.762 5.098-6.777l1.902-1.536 2.063-1.625 2.152-1.722c5.74-4.572 11.572-9.024 17.42-13.458 5.612-4.269 11.096-8.678 16.552-13.143 5.965-4.88 12.013-9.65 18.086-14.39 1.767-1.387 3.53-2.776 5.29-4.167A931.51 931.51 0 0 1 416 373Z" fill="#EC1C24"/><path d="M228 351a152.51 152.51 0 0 1 10.188 11l1.445 1.713c3.63 4.336 7.106 8.77 10.528 13.272 3.197 4.201 6.47 8.337 9.776 12.452 6.199 7.718 12.314 15.5 18.417 23.292l2.72 3.47a2935.58 2935.58 0 0 1 2.709 3.453 576.655 576.655 0 0 0 7.54 9.416l1.669 2.051a565.885 565.885 0 0 0 3.213 3.903c2.41 2.962 4.059 5.226 4.795 8.973-7.945 6.708-16.018 13.216-24.218 19.61a2603.44 2603.44 0 0 0-8.782 6.89l-3.48 2.733c-3.01 2.365-6.019 4.73-9.027 7.097a5463.278 5463.278 0 0 1-5.278 4.143 817.413 817.413 0 0 0-6.024 4.774l-2.441 1.942-2.078 1.667C238 494 238 494 236 494l-.297-2.275c-.926-7.092-1.852-14.183-2.78-21.274l-1.43-10.936-1.38-10.563c-.261-1.99-.52-3.98-.78-5.972l-.485-3.7-.424-3.243L228 433l-.283-3.252c-.433-2.839-.433-2.839-2.572-4.12l-2.458-.882-2.785-1.042-3.043-1.052-3.13-1.149a991.89 991.89 0 0 0-9.98-3.565c-2.2-.796-4.4-1.593-6.599-2.393a2609.476 2609.476 0 0 0-12.6-4.542 624.696 624.696 0 0 1-18.55-7.003v-4a63.14 63.14 0 0 1 6.125-5.063l3.883-2.94 2.016-1.51c3.03-2.28 6.001-4.634 8.976-6.987l3.508-2.758 1.75-1.376c1.723-1.35 3.447-2.699 5.172-4.046a1243.456 1243.456 0 0 0 21.241-16.993c3.067-2.505 6.131-4.99 9.33-7.327Zm125.75-42.875c11.241 7.728 19.106 19.13 22.688 32.313 2.74 16.384-.5 30.912-9.774 44.523C358.602 395.26 345.848 402.059 333 404c-16.442 1.11-30.358-2.354-43.125-13.125-10.36-9.733-15.868-21.44-16.345-35.599-.096-9.017.449-17.045 4.47-25.276l1.25-2.59c7.208-13.29 18.118-20.687 32.074-25.574 14.483-3.294 29.644-1.169 42.426 6.289ZM325 312c-1.653 3.08-3.296 6.164-4.938 9.25l-1.42 2.645-1.357 2.558-1.254 2.349c-.97 2.069-1.567 3.967-2.031 6.198l-2.064.244c-3.084.368-6.166.75-9.248 1.13l-3.25.384-3.114.39c-.948.116-1.896.23-2.872.35-2.694.391-2.694.391-5.452 2.502l1.592 1.307c14.4 12.124 14.4 12.124 16.033 17.907.213 4.83-1.226 9.209-2.625 13.786a105.568 105.568 0 0 0-.625 6l-.227 2.375L302 383c5.667-1.653 10.401-4.338 15.434-7.342 2.873-1.618 5.096-2.649 8.418-2.713 4.615 1.547 8.761 3.784 13.023 6.118l2.664 1.431c2.158 1.16 4.311 2.33 6.461 3.506 1.695-3.39.237-7.081-.438-10.688A267.69 267.69 0 0 1 346 364l-.629-3.523c1.023-5.658 5.029-8.61 9.13-12.414l2.456-2.362a593.3 593.3 0 0 1 6.043-5.7c-2.918-1.623-5.35-2.342-8.66-2.741-.876-.115-1.752-.23-2.654-.35-1.836-.228-3.672-.452-5.508-.672l-2.65-.353-2.415-.295c-3.406-.942-4.642-2.77-6.372-5.76l-1.221-2.492-1.338-2.705-1.37-2.815-1.404-2.85A1660.797 1660.797 0 0 1 326 312h-1Zm54-159c4.367 4.031 7.834 8.038 9 14v6h-23l-2-5c-4.323-2.797-8.17-1.819-13-1l-1 5c5.748 2.222 11.512 4.175 17.45 5.815 9.91 2.756 17.373 5.575 23.55 14.185 2.154 6.46 2.313 15.142-.5 21.438-4.418 7.163-10.749 11.55-18.762 13.902-12.903 2.279-27.819 2.503-39.093-4.883-4.823-3.84-7.469-7.712-9.645-13.457l-1-9h25l2 8c4.765 1.19 9.113 1.593 14 1 2.716-1.545 2.716-1.545 4-4v-4l-1.81-.535a759.79 759.79 0 0 1-18.94-5.903l-2.746-.87c-7.903-2.59-13.261-5.15-17.504-12.692-2.445-6.113-1.188-12.935 1.035-18.898 3.103-6.758 8.325-10.3 14.965-13.102 12.046-3.702 27.382-3.474 38 4Z" fill="#EC1C24"/><path d="M365.434 302.582C377.186 312.5 386.372 327.482 388 343c1.4 19.38-2.736 36.585-15.563 51.75-12.415 12.925-28.96 20.089-46.875 20.5-18.69-.451-35.276-7.823-48.207-21.39-11.366-13.799-16.412-30.491-15.101-48.313 2.475-18.819 11.483-33.893 26.37-45.613 23.032-15.868 54.902-14.565 76.81 2.648ZM282 319c-9.22 13.326-13.2 27.684-10.316 43.828 3.557 14.586 11.07 26.646 23.753 35.047 13.698 8.157 27.692 10.14 43.383 7.477 13.93-3.928 25.698-13.034 33.555-25.164 7.423-13.624 9.209-29.273 5-44.25-5.863-16.174-16.574-26.867-31.938-34.25-22.717-9.402-48.153-1.25-63.437 17.312Zm-188-8h142v21H94v-21Zm0-37h142v20H94v-20Zm157-125h67v21h-21v56h-25v-56h-21v-21Zm-127-1h55v14h-39v16h36v14h-36v20h40v13h-56v-77Zm77 1h24v57h34v21h-58v-78Zm-117 0h24v78H84v-78Z" fill="#EC1C24"/></svg>