<svg xmlns="http://www.w3.org/2000/svg" version="1.1" viewBox="0 0 900 900"><path d="M0 0h900v900H0V0Z" fill="#FEFEFE"/><path d="M444 93h3a261 261 0 0 1 77 9l9 2a280 280 0 0 1 105 47c26 18 51 38 71 62l2 3c12 13 22 27 31 42l2 3a372 372 0 0 1 48 133c2 15 2 31 2 46v11a291 291 0 0 1-4 50 334 334 0 0 1-101 194l-2 2a346 346 0 0 1-242 97h-4a306 306 0 0 1-148-33 286 286 0 0 1-90-61l-23-24-3-3a312 312 0 0 1-48-74l-4-6-3-8-2-3v-2l-3-6c-10-26-17-53-21-81v-3c-5-32-5-66 0-98v-3a243 243 0 0 1 10-44l10-29 1-4c8-21 19-42 32-60l1-2a456 456 0 0 1 39-48l1-3 4-1v-2l3-3 10-9a164 164 0 0 1 22-19c20-15 42-28 64-39l3-1 8-4 3-1c10-5 22-8 33-12l3-1c16-5 32-9 49-11l3-1c16-2 33-2 49-2Z" fill="#FEFEFD"/><path d="M444 93h3a261 261 0 0 1 77 9l9 2a280 280 0 0 1 105 47c26 18 51 38 71 62l2 3c12 13 22 27 31 42l2 3a372 372 0 0 1 48 133c2 15 2 31 2 46v11a291 291 0 0 1-4 50 334 334 0 0 1-101 194l-2 2a346 346 0 0 1-242 97h-4a306 306 0 0 1-148-33 286 286 0 0 1-90-61l-23-24-3-3a312 312 0 0 1-48-74l-4-6-3-8-2-3v-2l-3-6c-10-26-17-53-21-81v-3c-5-32-5-66 0-98v-3a243 243 0 0 1 10-44l10-29 1-4c8-21 19-42 32-60l1-2a456 456 0 0 1 39-48l1-3 4-1v-2l3-3 10-9a164 164 0 0 1 22-19c20-15 42-28 64-39l3-1 8-4 3-1c10-5 22-8 33-12l3-1c16-5 32-9 49-11l3-1c16-2 33-2 49-2Zm-45 91h-2c-41 7-83 25-115 52l-3 2c-15 12-28 25-40 40l-2 3c-25 31-43 68-51 107v2l-3 14v2a252 252 0 0 0 24 153l1 2a260 260 0 0 0 131 125l16 5 5 2a101 101 0 0 0 17 6 195 195 0 0 0 31 6l24 1h2c21 1 41 0 62-4l3-1a270 270 0 0 0 172-124c6-9 10-20 15-30l1-2c3-6 5-11 6-17l1-3a313 313 0 0 0 12-82v-3a220 220 0 0 0-6-57c-12-50-37-92-73-128l-2-2c-27-27-61-47-97-58l-2-1c-17-6-34-10-52-12h-2l-27-1h-3c-14 0-29 1-43 3Z" fill="#FEC20F"/><path d="M400 224h87l-2 13-1 3-1 3v3a661 661 0 0 1-12 43l-6 24-12 43a841 841 0 0 1-18 68 14015 14015 0 0 1-28 107h209l-5 23-1 4a478 478 0 0 1-14 51l-1 10H295l3-15 1-3 1-3a34494 34494 0 0 0 27-102l12-44a3207 3207 0 0 0 23-88 2141 2141 0 0 1 29-108l1-3 8-29Z" fill="#FEC20F"/><path d="M577 272c12 6 18 15 23 27 3 12 2 25-5 36-6 9-14 16-25 19-10 2-22 3-32-3l-2-1c-10-6-16-14-20-25l-1-2c-3-10-1-21 3-31 12-22 36-29 59-20Z" fill="#FDC211"/><path d="M299 602c2 6 1 10-2 15l297-1 1 3H295l4-17Z" fill="#EFC74D"/><path d="M786 363h2l4 23 1 9c2 7 3 13 3 20v4a1145 1145 0 0 1-1 70l-1 3c-1 9-1 9-4 12l1-16a266 266 0 0 0 2-51c0-25 0-25-4-50l-3-24Z" fill="#FBEEB2"/><path d="M408 524h1v5l207 1v1H407l1-7Z" fill="#FEFDB3"/><path d="M400 224h87l-1 8h-1v-7h-2l-10 1h-2a2785 2785 0 0 1-27 0h-43v3l-1 5-2 1 2-11Z" fill="#F2C432"/><path d="M96 392h1v18l-1 3-1 26v2c-2 28-2 28 4 52l1 6 1 8v11h-1c-7-42-10-84-4-126Z" fill="#EBC23C"/><path d="M453 91h13l9 1 9 1 4 2h-16l-14-1h-3a2658 2658 0 0 0-55 1c12-8 39-4 53-4Z" fill="#FEF8C5"/><path d="M702 396h1a222 222 0 0 1 3 54c0 32 0 32-4 38v-13l1-4v-7l1-5v-27l-1-9v-10l-1-4v-13Z" fill="#FEFAD2"/><path d="M182 408h1v3l-1 33v2c0 14 0 27 3 40l-1 6c-3-7-3-13-4-21l-1-5v-14a1629 1629 0 0 1 0-13c0-11 1-21 3-31Z" fill="#EEC234"/><path d="m651 605 1 4-1 1-2 2-2 1-3 4c-1 4-3 6-6 8l-1 2a571 571 0 0 1-23 19l-4 3-2 2-1 1-2-1 1-1 6-5 2-2 8-7 4-2 2-4h2l1-2c1-3 4-5 6-7a581 581 0 0 0 14-16Z" fill="#F0C330"/><path d="m380 788 14 1c16 4 34 3 51 3h20l5-1h20v1c-15 2-30 2-45 2h-4c-42 0-42 0-61-5v-1Z" fill="#EEC234"/><path d="M789 385h1a234 234 0 0 1 4 67c0 13 0 25-2 38h-1v-15l1-29a2721 2721 0 0 1 0-16v-8l-1-4v-22h-2v-11Z" fill="#EEC130"/><path d="M427 179h8a3528 3528 0 0 1 29 0v2h-3a458 458 0 0 0-68 4v-2h5l3-1 4-1 7-1 15-1Z" fill="#EFC230"/><path d="M445 384c1 4 0 7-1 12l-1 4-1 2-1 8-3 10-1 7-1 1-2 9c0 4-2 8-4 11v-10l1-3 1-2a1692 1692 0 0 1 13-49Z" fill="#FDF3B6"/><path d="M795 432h1c1 38 1 38-1 57l-1 3c-1 9-1 9-4 12l1-20 4-39v-13Z" fill="#FFFCD8"/><path d="M703 400c5 8 4 19 4 28a5459 5459 0 0 0 0 44v4c0 5-2 10-4 15v-9l2-25v-3a3277 3277 0 0 0-2-54Z" fill="#F3CD55"/><path d="M424 464h1v8l-2 4-1 4a208892506 208892506 0 0 1-7 28l-2 8-2 8h-2l3-17 1-3a3091 3091 0 0 1 11-40Z" fill="#FDF4BB"/><path d="M95 486h1v2l8 42 1 3 1 3-1 6v-3h-2l-1-3v-4l-1-3-2-6-1-7-1-1v-5l-2-7v-17Z" fill="#FDF4BE"/><path d="m500 702-7 2h-3l-11 1v2a10444 10444 0 0 1-28 0l-35-1v-1h2c38 1 38 1 76-4l6 1Z" fill="#F3D058"/><path d="M430 93h7v1h-3a3981 3981 0 0 0-24 2h-3l-14 3h-13v2l-14 1c3-3 6-3 10-3l2-1a1065 1065 0 0 1 52-5Z" fill="#EFC53F"/><path d="M94 456h1a525262010 525262010 0 0 0 1 22l1 4c0 6 0 6 2 11l1 6 1 8v11h-1c-3-21-6-41-6-62Z" fill="#EFC12F"/><path d="m524 283 1 2-5 8-2 7-1 2c-2 7-1 15 0 22h2l1 4 1 3 2 6-6-9-1-3c-4-11-3-22 2-33l6-9Z" fill="#EFC741"/><path d="M269 248c0 3 0 3-2 5l-3 3-2 2-15 14-2-1 17-18 3-3 4-2Z" fill="#FEF7CA"/><path d="m504 699-9 3-3 1h-3l-3 1-24 2h-6v-1h5l3-1 5-1 9-1 3-1 8-1h2l13-1Z" fill="#FEF7C2"/><path d="M599 296c4 4 4 8 4 13v5c0 6 0 11-3 16l-3 2 1-2c3-11 3-23 1-34Z" fill="#FDEFA0"/><path d="m756 284 7 13a7682 7682 0 0 0 11 28c-3-2-4-5-5-9-2-5-3-9-6-13v-3h-2l-1-4-3-6-1-6Z" fill="#EEC743"/><path d="m220 174-2 4-1 1-6 7-11 9-3-1 7-7 2-2c11-11 11-11 14-11Z" fill="#F2C32A"/><path d="m548 203 20 8 2 2 14 8-2 1-7-3v-2h-2l-5-2v-2h-2l-6-3-12-5v-2Z" fill="#FEF9C9"/><path d="M364 358h1v8h-2v3l-1 5-1 4v4h-2v2l-4 16h-1l4-22 1-3 5-17Z" fill="#EEC43B"/><path d="M789 504h1c-1 26-1 26-8 36l4-23 1-4 2-9Z" fill="#FDF5BF"/><path d="M702 396h1l3 36c-3-5-3-10-3-15v-4l-1-4v-13Z" fill="#FDF6C5"/><path d="M536 349h4v2l19 2h11c-4 3-7 2-12 2h-3c-7 0-14-1-19-6Z" fill="#EFC234"/><path d="M351 400h2l-8 32-1-9 1-2v-2h2v-3l1-5v-3l3-8Z" fill="#FEF8C3"/><path d="m687 542 1 4-3 7-2 6h-2v2l-4 8-2 4h-2l4-10 2-3 2-5 2-3 1-3 3-7Z" fill="#F0C53A"/><path d="M199 346c1 4 0 7-1 11l-1 2c-1 5-2 10-5 14l-2 1c2-10 5-19 9-28Z" fill="#FDF4BD"/><path d="M464 181h17l3 1 4 1h2l3 1h3l6 1v2a583 583 0 0 1-38-5v-1Z" fill="#EEC33B"/><path d="M129 283h2l-5 13-1 2-7 15h-1v-5h2v-2l2-8h2v-2l2-6h2v-2l2-5Z" fill="#FEFACD"/><path d="M793 472h1c0 27 0 27-3 31l-1 1 2-20v-4l1-8Z" fill="#FEF4B2"/><path d="M696 513c2 5-1 10-3 16l-1 3-1 3-1 3-4 6 4-15 2-5 1-3 3-8Z" fill="#FEF8C6"/><path d="m144 260 1 4h-2v2l-3 5a294 294 0 0 0-5 11h-2v3h-2c1-5 4-10 7-14l1-2 5-9Z" fill="#F0C436"/><path d="M539 690c-6 3-12 6-19 7l-3 2h-8l11-4 4-2h2l7-3h6Z" fill="#EFC641"/><path d="M604 576v10l-1 4v2h-2v4c0 3 0 4-2 7l-2 2 3-14v-3l4-12Z" fill="#FDF3B7"/><path d="M706 458h1a1232 1232 0 0 1 0 13c0 7-1 13-4 20v-8l3-25Z" fill="#EFC43A"/><path d="M379 98c-3 2-6 3-10 3l-21 5c1-3 3-3 6-4l2-1h2l21-3Z" fill="#FDF6BF"/><path d="M781 540c2 7-1 15-3 21l-5 5 8-26Z" fill="#FEF7C7"/><path d="M372 328h1c0 6 0 10-2 15h-2v3l-2 11h-2l4-19 1-3 2-7Z" fill="#EEC94B"/><path d="M104 354h1v8l-1 1-1 5v4h-1l-1 8h-2c0-9 2-17 5-26Z" fill="#F0C539"/><path d="M786 363h2c2 10 3 19 3 29h-1v-3l-3-18-1-8Z" fill="#FDF4C1"/><path d="M383 185h9c-5 3-10 4-16 5l-3 1-3 1-3 1-4-1 5-1v-2h3l5-2h7v-2Z" fill="#F0C131"/><path d="M187 384h1v11l-4 17h-1l2-18 1-3 1-7Z" fill="#FEF5BD"/><path d="M95 392h1l-2 29h-1v-14c0-5 0-10 2-15Z" fill="#FEF4BC"/><path d="M362 358h2l-4 17v3l-2 6h-1c0-6 0-10 2-16l3-10Z" fill="#FEF8CA"/><path d="M528 785v2h-4v2l-20 1v-1l10-2 3-1h2l3-1h6Z" fill="#FEF9CB"/><path d="M528 691h3l-11 5h-2c-5 2-9 3-14 3 4-4 9-4 14-6l10-2Z" fill="#FEFACD"/><path d="M329 486v8l-1 3-1 4-1 3-2 8h-1c1-19 1-19 6-26Z" fill="#FEF7C2"/><path d="m348 782 25 5v1l-15-1v-2h-3c-4 0-4 0-6-2l-1-1Z" fill="#FEF9CA"/><path d="m133 608 8 12 1 2 3 7-3-1-1-5h-2l-2-6h-2l-2-9Z" fill="#FEF8CA"/><path d="M387 272c2 4 1 8 0 12h-2l-1 3v4l-1 2c0 4-1 6-3 9l3-16v-2l4-12Z" fill="#EEC641"/><path d="M614 538h1v9h-2v8h-2l-1 5v-8l1-3v-2l1-3 2-6Z" fill="#FDF4BB"/><path d="M338 455h1v9h-2v3l-2 11h-2l5-23Z" fill="#F1C43A"/><path d="M384 189c-3 3-5 2-9 3l-4 1-9 1 10-4 2-1h10Z" fill="#FEF6C3"/><path d="m576 118 9 1v2h2l9 4v2l-20-8v-1Z" fill="#FEF7C3"/><path d="M560 679c-3 3-7 5-11 6l-2 1-7 2v-2l5-1v-2h5v-2c4-2 6-2 10-2Z" fill="#FEF9CE"/><path d="M311 550h2l-1 7-1 2-3 13h-1l4-22Z" fill="#FDF2B1"/><path d="m549 780-5 1v2c-6 2-10 2-16 2l9-4c9-2 9-2 12-1Z" fill="#FEF6BF"/><path d="M347 688c7 0 14 2 20 5l1 2c-7-1-15-3-21-7Z" fill="#FDF6C1"/><path d="M789 385h1l3 27c-2-3-2-6-2-10v-6h-2v-11Z" fill="#EDC43C"/><path d="M306 576h1c0 8 0 8-2 11l-2 7-1 2a1027 1027 0 0 0-1-4l1-3 1-3 1-3 2-7Z" fill="#EDC33A"/><path d="M304 581v6l-1 3v3l-1 2-2 7h-1l1-9 1-7c0-2 1-3 3-5Z" fill="#FEF7C4"/><path d="M118 576c3 3 4 6 6 10l1 3 2 7h-2v-3h-2l-2-6-2-4-1-7Z" fill="#FEF6BF"/><path d="M450 362v7l-1 3v3l-1 2-2 7h-1c0-6 1-10 3-16l2-6Z" fill="#EEC339"/><path d="M102 356v11l-1 3-1 3-1 7h-1l1-16h2v-3l1-5Z" fill="#FDF8C3"/><path d="M369 333h2a1914 1914 0 0 1-6 20c-1-7 1-13 4-20Z" fill="#FEFACE"/><path d="M512 99c8-1 13 0 20 4-4 1-8 0-12-1l-3-1-5-1v-1Z" fill="#FBEFB2"/><path d="M434 430h1c-1 6-2 12-5 18-2-4 0-7 1-11l1-2 2-5Z" fill="#FDF7C8"/><path d="M599 296c3 3 4 5 4 8v18h-1v-3l-3-23Z" fill="#FEFBD2"/><path d="M393 248v13l-1 2c0 4-1 6-4 9l3-16 1-3 1-5Z" fill="#F0C641"/><path d="M399 225v6l-1 3v3l-1 2-2 7h-1l1-14h2v-3l2-4Z" fill="#FDF3BA"/><path d="m348 200-3 1v2c-5 3-8 3-13 3l9-5 3-1h4Z" fill="#FEF5C1"/><path d="m581 668-7 5-2 1-8 3v-2l9-4v-2c5-2 5-2 8-1Z" fill="#FEF9C9"/><path d="m603 652 2 1-7 7-3 1-7 3 10-8 3-2 2-2Z" fill="#EFC53B"/><path d="M185 384h2c0 7-1 13-3 20h-1v-11h2v-9Z" fill="#F0C438"/><path d="m239 278 1 3-4 6-2 3h-3v2l-2-1 10-13Z" fill="#FDF6C2"/><path d="M484 236h1v8h-2v4l-1 7h-2l4-19Z" fill="#FDF4BD"/><path d="m174 216 2 1-5 7-1 1-4 5h-1v-5h2v-2l2-1 1-3h3l1-3Z" fill="#FEF9CC"/><path d="M364 103c-7 4-13 5-20 5l9-4 4-1h7Z" fill="#EFC333"/><path d="M669 712c0 4-1 5-3 8l-9 3 12-11Z" fill="#FEF7C6"/><path d="m585 222 5 3 3 2 7 6-10-5-3-1-2-5Z" fill="#FEF9CB"/><path d="m235 162-12 9-1-2h2l1-4h4v-3h6Z" fill="#FEF9CC"/><path d="m384 790 21 2v1a766 766 0 0 1-11 0h-5c-2 0-2 0-5-3Z" fill="#FEFACF"/><path d="M343 436h1c-1 14-1 14-4 19-2-4 0-8 1-12l1-2 1-5Z" fill="#EFC53C"/><path d="M514 317h1l1 3 1 3 1 4 3 9-4-3c-2-6-4-10-3-16Z" fill="#FDF3B7"/><path d="m174 218 1 4-3 3-8 10-2-1 2-3 3-3 1-2 6-8Z" fill="#EDC437"/><path d="M513 785h11l-9 3-3 1h-8c3-2 5-2 9-2v-2Zm47-106 2 1-6 4-3 1c-3 2-5 2-9 2a72 72 0 0 1 13-7l3-1Z" fill="#EFC53E"/><path d="m629 631 2 1-10 10-2-1c5-8 5-8 10-10Z" fill="#F6C322"/><path d="m691 355 4 8 1 3-1 6c-3-6-5-11-4-17Z" fill="#FDF4BF"/><path d="M115 320c1 4 1 5-1 8l-1 4-1 3-2 1c1-6 2-11 5-16Z" fill="#F1C843"/><path d="M472 282h1c0 6 0 11-3 16v-10l1-4 1-2Z" fill="#FDF7C4"/><path d="M298 603c2 3 0 6-1 9l-1 2-1 5-2-1 2-10h2l1-5Z" fill="#FEF8C7"/><path d="M324 508h1c0 7-1 12-4 19-2-4 0-8 1-12l1-2 1-5Z" fill="#EEC232"/><path d="M351 400h2l-3 13h-2l-1 3v-2l1-7 3-7Z" fill="#FEFCD8"/><path d="M341 779c14 1 14 1 18 5l-18-4v-1Z" fill="#EEC741"/><path d="M215 572h2l7 15c-4-4-7-8-9-13v-2Z" fill="#FEF9C7"/><path d="M379 302c2 7 0 12-3 18-2-3 0-7 1-10l1-2 1-6Z" fill="#F0C640"/><path d="m279 238 2 1c-4 5-6 8-12 9l10-10Z" fill="#FEF7C6"/><path d="m307 120 2 1c-4 3-7 5-12 6l-4-1 5-2 3-2 6-2Z" fill="#EEC539"/><path d="M685 544c1 4 0 6-2 10l-2 3-1 3h-1v-5h2v-5h2l2-6Z" fill="#FEF7C6"/><path d="M101 526c3 3 4 7 5 12l-1 4v-3h-2l-2-13Z" fill="#FEF9CE"/><path d="M468 298h1c0 9 0 9-2 14h-2l3-14Z" fill="#FEF8CA"/><path d="m227 294 1 2-3 6-1 3-5 3 5-10 2-2 1-2Z" fill="#FEF6BF"/><path d="m655 723 2 1-7 7-4-1 9-7Z" fill="#FEF6C4"/><path d="M396 702h5l3 1 4 2h-12v-3Z" fill="#F3CB49"/><path d="m693 690 1 3c-2 3-3 5-7 6h-2l3-3 1-2 4-4Z" fill="#FEF6C6"/><path d="m636 622 1 3-2 1-2 1v2l-1 2-6 2 2-3h2l1-2 5-6Z" fill="#F1C941"/><path d="m199 541 5 9v3l1 2c-4-4-6-6-6-11v-3Z" fill="#F1C53E"/><path d="M792 491h1a234 234 0 0 1 0 8c0 2-1 3-3 5 0-5 0-9 2-13Z" fill="#FDF8CE"/><path d="m198 189 4 1-3 3-1 2-4 1v2h-2v-3h3v-3h3v-3Z" fill="#FDF5C1"/><path d="m328 112-9 4h-3l-2 1 1-3 13-2Z" fill="#FEF8C5"/><path d="m651 605 1 4-7 6-2-1 8-9Z" fill="#F1C534"/><path d="M701 489h1l-2 15h-1v-9l2-6Z" fill="#FEFCD4"/><path d="m302 223-2 4-4 1-1 2-5 1c8-8 8-8 12-8Z" fill="#FDF6C1"/><path d="m701 204 4 1 1 4h3l1 5-3-3-2-1-4-6Z" fill="#FEF9CF"/><path d="M293 659h4v2l3 1c4 1 4 1 5 3l1 2-13-7v-1Z" fill="#FDF4BA"/><path d="M328 493h1c0 6 0 10-3 15v-10l1-3 1-2Z" fill="#EFC338"/><path d="M106 342v9l-1 3-1 2h-1c0-6 0-9 3-14Z" fill="#FEF8C7"/><path d="m104 530 4 6v8l-3-6-1-2v-6Z" fill="#F1C239"/><path d="M193 519c2 5 4 9 4 14l-4-8v-3l-1-2 1-1Z" fill="#FEF7C5"/><path d="m519 288 2 1-2 4-1 3-3 5v-7h2v-2l2-4Z" fill="#FEF9CB"/><path d="M542 199h4v2h6v2l3 1-2 1-4-2-3-1-4-3Z" fill="#F0C43D"/><path d="m737 633 2 1a809 809 0 0 1-4 6l-1 2h-1l1-8 3-1Z" fill="#F3C32C"/><path d="m748 618 1 4h-2l-1 3-1 4-3 1c1-5 3-8 6-12Z" fill="#FEF7C4"/><path d="M372 328h1c0 6 0 10-2 15h-1c0-6 0-10 2-15Z" fill="#F1C436"/><path d="m186 201 4 1-7 7-1-4h3l1-4Z" fill="#FEFACA"/><path d="M360 196h-3l-1 3h-8c7-5 7-5 12-3Z" fill="#FCF3B9"/><path d="m291 127 2 1c-2 3-5 4-8 5l-4-1 5-3 3-1 2-1Z" fill="#F0C641"/><path d="m150 636 5 1 1 7c-3-2-5-5-6-8Z" fill="#F1C431"/><path d="m581 767-2 4h-8c3-2 6-4 10-4Z" fill="#FDF6C1"/><path d="M770 571h1v8l-4 2 3-10Z" fill="#FCF4BD"/><path d="m764 300 4 3 1 2 1 2-1 5-5-12Z" fill="#FEFACC"/><path d="m660 295 7 9-1 2c-3-2-4-3-5-7v-2l-1-2Z" fill="#FDF7BF"/><path d="M528 104c5 0 8 0 12 2v1c-5 0-8 0-12-2v-1Z" fill="#F0C335"/><path d="M538 105h9l1 3c-8-1-8-1-10-3Z" fill="#FDF5BE"/><path d="M368 695h9l1 3-10-3Z" fill="#FEF6C6"/><path d="m700 683 1 3c-2 3-2 3-5 4h-2l6-7Z" fill="#FEF8CA"/><path d="M596 605h1v9h-2l-1 2 2-11Z" fill="#FCF2B3"/><path d="M599 595h2c0 4 0 5-2 8l-2 2 2-10Z" fill="#FEF9CB"/><path d="M311 550h2l-2 9h-2l2-9Z" fill="#FEF9CF"/><path d="M343 432c1 5 0 8-1 12h-1v-7l2-5Z" fill="#FFF9CB"/><path d="M448 374h1v8l-3 2 2-10Z" fill="#FEF6C3"/><path d="M751 275c4 5 4 5 5 9h-3v-5h-2v-4Z" fill="#F1C63A"/><path d="m207 181 3 1-7 6v-3h2v-3l2-1Z" fill="#FFFACF"/><path d="M652 599h3c-1 3-3 6-6 8v-3h2l1-5Z" fill="#FEF9CA"/><path d="m659 591 2 1-5 7-1-3h2v-4l2-1Z" fill="#FEF9CC"/><path d="M599 324h2v5l-4 3 2-8Z" fill="#FEF7C5"/><path d="m213 317 1 2-3 7h-2l4-9Z" fill="#FEF6BF"/><path d="m218 308 1 4h-2l-1 5h-2l4-9Z" fill="#FEF9C8"/><path d="M479 251h1c0 4-1 7-3 11 0-7 0-7 2-11Z" fill="#F1C132"/></svg>