<svg xmlns="http://www.w3.org/2000/svg" version="1.1" viewBox="0 0 300 150"><path d="M0 0h300v150H0V0Z" fill="#FEFEFE"/><path d="M43 77h39v39H43V77Z" fill="#FEB902"/><path d="M0 77h39v39H0V77Z" fill="#03A4EF"/><path d="M43 34h39v39H43V34Z" fill="#7FBA02"/><path d="M0 34h39v39H0V34Z" fill="#F25123"/><path d="M98 36h9a703.795 703.795 0 0 1 10 25c3.875-8.257 7.56-16.552 11-25h9v37h-7l-1-23c-4.615 11.455-4.615 11.455-9 23h-5l-10-24-1 24h-6V36Z" fill="#797979"/><path d="m270 82 8.125-.188 2.524-.082c4.868-.054 8.133.585 12.35 3.27 3.847 4.262 5.387 6.94 5.27 12.773-.563 4.657-2.316 8.397-5.753 11.618-6.63 4.169-15.058 2.86-22.516 2.61V82Z" fill="#4A4A4A"/><path d="M285 34v6l-6 1-1 6h9v-7l7-1v7h6v27c-9 0-9 0-11.547-1.453-2.143-3.756-1.886-7.055-1.703-11.297l.055-2.402c.047-1.95.118-3.9.195-5.848h-8v21h-7V52h-4v-5h4l-.313-3.688c.019-3.456.289-4.276 2.313-7.312 4.03-2.687 6.24-2.403 11-2Zm-26 12c3.834 1.812 5.534 3.3 7.875 6.813 1.574 4.46 2.194 7.93.105 12.34-2.078 3.473-3.561 5.568-6.98 7.847-5.377.659-10.338.93-15.125-1.75-3.877-4.653-4.416-8.511-4.336-14.48.732-4.398 3.087-6.99 6.461-9.77 3.715-1.857 7.946-1.442 12-1Z" fill="#7B7B7B"/><path d="M210 46c3.233 1.476 5.722 3.266 8 6 1.676 5.029 1.606 9.34-.188 14.25-2.127 3.228-3.386 4.894-6.812 6.75-4.92.66-9.359.65-14-1.188-3.092-2.802-4.74-4.917-5.32-9.148-.258-5.716.352-9.267 4.32-13.664 4.22-3.618 8.677-3.726 14-3Z" fill="#7A7A7A"/><path d="M150 82c15 0 15 0 20 4 1 2.438 1 2.438 1 5-1.386 2.837-2.77 4.77-5 7l1.395 1.145c2.067 2.389 2.538 4.489 3.292 7.543l.762 3.011L172 112h-6c-.182-.699-.364-1.397-.55-2.117-.252-.91-.504-1.82-.762-2.758l-.739-2.742c-.816-2.704-.816-2.704-3.95-4.383l-5.002-1v13h-5V82Z" fill="#4A4A4A"/><path d="M286 86c3.186 1.356 4.541 2.27 6.375 5.188 1.128 5.074.558 9.16-2 13.687-3.674 3.287-7.413 3.997-12.25 4.313C276 109 276 109 275 108a83.431 83.431 0 0 1-.098-4.91l.01-2.998.026-3.154.013-3.167c.015-2.59.03-5.18.05-7.771 3.487-1.742 7.275-.722 11 0Z" fill="#FEFEFE"/><path d="M247 82h19l-1 4h-13v8h13v4h-13v10h14v4h-19V82Zm-120 0h19l-1 4h-13v8h13v4h-13v10h14v4h-19V82Z" fill="#4D4D4D"/><path d="M236 46c1 1 1 1 1.063 4.063L237 53l-9-1c1.574 4.16 1.574 4.16 4.938 5.438 3.515 1.793 4.69 2.876 6.062 6.562-.607 3.375-1.256 5.3-3.77 7.664-2.676 1.603-4.26 1.678-7.355 1.586-.869-.015-1.738-.03-2.633-.047C223 73 223 73 221 72v-6l10 1v-3l-1.68-.77-2.195-1.042-2.18-1.02C223 60 223 60 221 57c-.5-2.875-.5-2.875 0-6 4.39-5.178 8.355-5.98 15-5Zm-65 0 2 1v6h-12c-1.251 3.754-1.701 7.079-1 11 1.908 2.296 1.908 2.296 5 3 2.777-.072 5.25-.487 8-1v6c-3.967 1.984-8.687 1.548-13 1-3.263-1.603-5.23-3.95-7.375-6.875-1.284-4.364-1.031-7.996.5-12.25 4.892-7.502 9.158-8.973 17.875-7.875Z" fill="#7A7A7A"/><path d="m115.125 81.938 3.883.027L122 82v5l-2.668-.14-3.52-.11-3.48-.14c-4.007.47-5.565 1.497-8.332 4.39-1.422 3.594-1.219 7.105-.313 10.813 1.553 2.586 2.707 3.656 5.313 5.187 3.277.362 3.277.362 6.75.188l3.547-.083L122 107l-1 5c-13.963.689-13.963.689-17.688-1.75-4.066-3.956-6.124-6.763-6.562-12.563.315-4.642 1.352-7.809 4.715-11.136 4.875-4.16 7.317-4.671 13.66-4.614Z" fill="#4C4C4C"/><path d="M212 82h19l-1 4h-13v9h13l-1 4h-12v13h-5V82Z" fill="#4D4D4D"/><path d="M173 82h24v4h-10v26h-5V86h-9v-4Z" fill="#4B4B4B"/><path d="M192 46v7l-2.875-.188L186 53c-1.976 2.963-2.264 3.68-2.414 7.012l-.117 2.295-.097 2.38-.117 2.417A890.92 890.92 0 0 0 183 73h-6V47h6l1 2 1.188-1.5c2.363-1.956 3.826-1.742 6.812-1.5Z" fill="#757575"/><path d="M142 46h6c1 1 1 1 1.114 3.5l-.016 3.285-.01 3.545-.025 3.733-.014 3.744c-.012 3.064-.028 6.129-.05 9.193H142V46Z" fill="#7F7F7F"/><path d="M209 52c2.846 2.295 2.978 3.802 3.375 7.438-.4 3.803-.8 5.73-3.375 8.562-2.938.625-2.938.625-6 0-2.522-2.124-3.778-3.718-4.348-7.008-.125-2.948.014-5.362 1.41-7.992 3.107-1.603 5.518-1.428 8.938-1Z" fill="#FBFBFB"/><path d="M258 52c2.594 2.594 2.327 3.832 2.375 7.438l.086 2.933C260 65 260 65 258.171 66.855c-3.08 1.624-4.9 1.14-8.17.145-2.067-3.098-2.297-3.954-2.315-7.5l-.05-2.344C248.62 51.33 252.92 51.538 258 52Z" fill="#FCFCFC"/><path d="M235 82h5v30h-5V82Zm-35 0h5v30h-5V82Z" fill="#4B4B4B"/><path d="M156 85c5.792.368 5.792.368 8 1 2 3 2 3 1.875 5.563C165 94 165 94 163.312 95.313c-2.847.846-5.358.821-8.312.687a757.916 757.916 0 0 1-.063-4.938l-.035-2.777C155 86 155 86 156 85Z" fill="#FBFBFB"/><path d="M294 52h6v15l-5 1c-1-1-1-1-1.098-4.379.007-1.394.019-2.79.036-4.184l.013-2.154c.015-1.76.03-3.522.05-5.283Z" fill="#FDFDFD"/><path d="m145 35 5 3c-.875 3.875-.875 3.875-2 5-1.666.04-3.334.043-5 0l-2-4 4-4Z" fill="#7F7F7F"/></svg>