<svg xmlns="http://www.w3.org/2000/svg" version="1.1" viewBox="0 0 500 300"><path d="M0 0h500v300H0V0Z" fill="#FEFEFE"/><path d="M249.300781 16.890625c8.13962 3.910787 15.922992 8.598663 23.762207 13.07129 6.372132 3.62675 12.800293 7.106759 19.312012 10.475585C309.441951 49.31126 309.441951 49.31126 313 55c.95435 3.743184 1.136453 7.278281 1.161133 11.13208l.029114 3.682083.012878 3.955368.008568 2.028631c.014953 3.54295.024207 7.085861.028541 10.62884.005478 3.64137.029503 7.282366.057972 10.92362.018714 2.8166.023837 5.633111.025364 8.449768.00446 1.98958.023063 3.979112.04197 5.968607C314.348982 118.52496 314.207987 123.97694 311 130c-3.26148 3.225267-7.047145 5.277045-11.058594 7.46875l-1.749588.961243c-1.873903 1.028049-3.75147 2.049185-5.629318 3.070007a7760.98309 7760.98309 0 0 0-3.907227 2.137695c-2.627708 1.437731-5.256905 2.872684-7.887207 4.305664-3.424947 1.867142-6.841703 3.748834-10.256347 5.634764a39889.426453 39889.426453 0 0 1-5.76172 3.171875l-2.607177 1.44336c-2.36737 1.296777-4.749627 2.55828-7.142822 3.80664l-2.28711 1.248047C247.173854 166.048684 242.995167 166.868076 237 165c-4.527143-1.979226-8.820833-4.33369-13.125-6.75-1.232761-.67808-2.46617-1.354986-3.700195-2.030762-3.13116-1.720305-6.251326-3.45948-9.367554-5.206665-1.739055-.974365-3.480623-1.944245-5.22229-2.91394-29.154586-16.237888-29.154586-16.237888-32.58496-23.098633-.112297-2.122525-.159352-4.248603-.177002-6.374023l-.019913-1.981507c-.019738-2.16795-.031398-4.33583-.041366-6.503845l-.01235-2.245125c-.020866-3.923172-.035164-7.846308-.044535-11.769523-.011052-4.046421-.045436-8.09229-.085172-12.138516-.026188-3.11591-.034522-6.231688-.03811-9.347698-.004862-1.4911-.016465-2.982197-.035037-4.47319-.024436-2.092097-.02342-4.182775-.016486-6.27497l-.017776-3.60199c.700056-4.721529 2.853434-7.89025 6.45601-10.974916 5.920771-3.719708 11.978673-7.103855 18.156737-10.377197 9.519296-5.09132 18.945134-10.322272 28.299316-15.711182 16.24504-9.289793 16.24504-9.289793 23.876465-6.335693Z" fill="#2B363B"/><path d="M262.3125 53.3125a7906.203454 7906.203454 0 0 0 5.863281 3.363281l2.90088 1.67041c3.837967 2.171237 7.7298 4.23599 11.63501 6.283448C284.928877 65.957409 286.36619 67.013389 288 69c.401138 1.997528.401138 1.997528.435791 4.300293l.057999 2.619843.010116 2.822052.030258 2.910675c.015191 2.032498.022226 4.06507.021744 6.097625.006554 3.106565.061004 6.20992.11792 9.315918.008804 1.97525.014757 3.950514.017578 5.92578l.065323 2.809785c-.066693 6.292603-.066693 6.292603-2.027023 8.864838-3.920036 3.351342-8.507084 6.33319-13.729706 6.33319V83.000002c-5.44213 2.0408-9.597965 3.727444-14.4375 6.625l-3.121094 1.851563C253.13918 92.785634 253.13918 92.785634 252 94c-.09845 2.908637-.137139 5.797872-.140625 8.707031-.01833 1.801445-.0379 3.602878-.058594 5.404297-.028978 2.850877-.05078 5.700968-.05127 8.552002-.003331 2.74445-.03787 5.487069-.077636 8.231201l.021423 2.5793c-.086019 4.177976-.129673 5.899846-3.008728 9.099167C245.018202 138.521882 242.945237 138.0959 239 137c-1.68689-1.316528-1.68689-1.316528-3-3-.29528-2.972276-.417096-5.745658-.40625-8.71875l-.032837-2.588745c-.045916-3.656072-.057351-7.312075-.072143-10.968384-.015674-2.668716-.04867-5.336834-.08252-8.00537l.009155-2.509645c.093362-4.235215.093362-4.235215-1.783447-7.850341-6.627433-5.517987-15.085665-9.163645-22.784302-12.93689C206.823586 78.412599 202.905676 76.228997 199 74c.170206-4.425367.35631-6.386961 3.625-9.5 4.15044-1.84464 5.976252-1.459759 10.375-.5 3.253906 1.506348 3.253906 1.506348 6.5625 3.414063a6667.941228 6667.941228 0 0 0 3.664063 2.054687c1.892905 1.077727 3.78209 2.161262 5.666992 3.25293 1.839257 1.059603 3.690348 2.095627 5.543945 3.129882l3.308594 1.90088C241.676047 79.259198 243.945298 78.969425 248 78c3.099418-1.35388 3.099418-1.35388 5.9375-3.0625l2.902344-1.660156L259 72v-3l-1.58545-.822754C240.458572 59.36163 240.458572 59.36163 233.8125 55.5625l-2.292969-1.308594L230 53v-3c1.413281-.818374 2.830783-1.629462 4.25-2.4375l2.390625-1.371094c9.127776-4.609225 17.736253 2.52459 25.671875 7.121094Z" fill="#FAFBFB"/><path d="M95 217h15c3.079902 3.883355 4.978239 6.596678 6.98291 10.918945 1.92391 3.936486 4.260934 7.641199 6.51709 11.393555.866749 1.47399 1.731517 2.949146 2.59375 4.425781L128 247c2.769147-2.481423 4.43806-5.224879 6.285156-8.4375l1.857422-3.210938L138.0625 232c1.260987-2.187922 2.522675-4.37544 3.785156-6.5625l1.687744-2.941406c1.095978-1.867857 2.263312-3.694161 3.4646-5.496094h15v66h-14l-1-38c-4.234935 7.194215-4.234935 7.194215-8.466553 14.39038l-1.59204 2.699464-1.634522 2.7771C134 267 134 267 133 268c-1.68609.072055-3.375007.08386-5.0625.0625l-2.785156-.027344L123 268l-.870361-1.572998c-1.313136-2.372006-2.627626-4.74326-3.942139-7.114502l-1.36914-2.47461c-.441505-.795995-.883008-1.591992-1.337891-2.412109l-1.221924-2.20581c-1.377995-2.43067-2.82099-4.824046-4.258545-7.21997l-1 37.999998H95v-66Z" fill="#2A353A"/><path d="M273 217c14 0 14 0 17.054688 2.228027l1.820312 3.10791 1.040283 1.67691c1.078348 1.762573 2.080265 3.556663 3.084717 5.362153.699743 1.17078 1.40415 2.338788 2.113281 3.503906 1.319387 2.18556 2.601438 4.380956 3.867188 6.599121 2.606753 4.546063 5.323365 9.028363 8.01953 13.521973l1-36h15v66h-14c-3.220044-3.521523-4.880732-5.904293-7-10-1.198072-1.892693-2.411866-3.77552-3.640624-5.648438A2749.891195 2749.891195 0 0 1 297.75 261.625c-1.212026-1.925434-2.425512-3.84995-3.640625-5.773438l-1.594727-2.53662C291.097915 251.14965 289.552553 249.07007 288 247l-1 36h-14v-66Z" fill="#2E383D"/><path d="M354 217h16c6.040247 16.958357 12.04317 33.92603 17.75 51l.66034 1.965881c.61145 1.822723 1.217875 3.64713 1.824035 5.471619l1.038086 3.121094C392 281 392 281 392 283h-16l-3-10h-22l-1 5-2 5h-15c.770122-5.390852 1.806437-9.768178 3.671875-14.769531.546315-1.505518 1.091186-3.01156 1.634766-4.518067l.849853-2.347717c1.383276-3.877877 2.685707-7.781947 3.98413-11.688904l.777467-2.335724c.778552-2.342106 1.555286-4.68481 2.331909-7.027557a28220.616547 28220.616547 0 0 1 1.601563-4.81836c.972561-2.925733 1.944321-5.85173 2.915039-8.778076C351.841837 223.476524 352.920613 220.23816 354 217Z" fill="#2D373C"/><path d="M262 216v14l-3.21875.042969c-10.253766.088355-10.253766.088355-19.296875 4.386719-4.053511 4.288188-5.692543 8.634685-5.984375 14.507812.290127 6.492844 2.325966 11.888466 6.9375 16.5 5.17074 3.15289 9.366087 3.837004 15.375 3.6875l2.09961-.027344c1.696114-.023394 3.392049-.05926 5.08789-.097656v14c-6.30306 3.15153-17.478784 1.58429-23.9375-.5625-9.687005-4.151573-16.175202-10.399068-20.160156-20.113281-2.480418-9.137815-2.448256-20.371797 1.535156-29.01172 4.548316-7.616033 10.975936-13.648111 19.390625-16.703126C247.100967 215.212129 254.632227 215.72768 262 216Z" fill="#2E373D"/><path d="M170 217h45v14h-15v52h-16v-52h-14v-14Z" fill="#313B41"/><path d="M200 82c1.980365.976741 3.959261 1.95646 5.9375 2.9375l3.339844 1.652344C212 88 212 88 213 89c.088397 2.375685.115303 4.722087.097656 7.097656l-.004287 2.148056c-.005615 2.272305-.01817 4.544513-.030869 6.816788a7723.649084 7723.649084 0 0 0-.013672 4.611328C213.03778 113.449256 213.020506 117.224612 213 121c-3.60158-.655476-6.158837-1.449481-9.25-3.4375l-2.078125-1.308594C200 115 200 115 199 113c-.097717-2.239192-.130774-4.481335-.132813-6.722656l-.002899-2.00206c-.00068-1.396206.001165-2.792415.00534-4.188614.00536-2.144196.000047-4.288184-.006347-6.432373.00066-1.354818.001942-2.709636.003906-4.064453l.003418-3.75415C199 83 199 83 200 82Z" fill="#FCFCFD"/><path d="M361 238h2c1.007044 3.101926 2.004408 6.20688 3 9.3125l.867188 2.669922.820312 2.56836.761719 2.364501C368.999999 257 368.999999 257 368.999999 260h-14c1.807825-7.403468 3.730517-14.724775 6-22Z" fill="#F0F1F2"/></svg>