<svg xmlns="http://www.w3.org/2000/svg" version="1.1" viewBox="0 0 500 300"><path d="M0 0h500v300H0V0Z" fill="#FEFEFE"/><path d="M252.128906 17.730469c1.48742.801526 2.964885 1.621713 4.433594 2.457031l2.452637 1.341553C261.688363 22.999504 264.345194 24.496568 267 26l2.848145 1.604492c3.906473 2.2017 7.81113 4.40621 11.70459 6.63086 4.453755 2.540055 8.913871 5.038287 13.474609 7.381836l2.335449 1.200927c1.406493.715735 2.817895 1.421954 4.235352 2.115723C306.98244 47.67013 312.014753 51.044258 314 57c.109295 2.088714.158968 4.180723.177002 6.272217l.038895 3.925216c.00817 1.417258.015612 2.83452.022384 4.251786l.01235 2.167917c.02085 3.78932.035154 7.578606.044535 11.367971.01104 3.899354.045416 7.798133.085172 11.697284.026247 3.010475.034527 6.020815.03811 9.031394.004847 1.43642.01641 2.872833.035037 4.30914C314.627427 124.32842 314.627427 124.32842 310 131c-2.138672 1.856445-2.138672 1.856445-4.46875 3.078125l-2.667969 1.447266c-.944883.48662-1.889765.973242-2.86328 1.474609-2.010754 1.098344-4.021157 2.197326-6.03125 3.296875-2.155079 1.153235-4.311368 2.304208-6.46875 3.453125-8.594089 4.595945-17.163087 9.224672-25.628907 14.05371C246.197066 166.643677 246.197066 166.643677 239 165c-4.1307-1.65499-7.980516-3.730043-11.875-5.875l-3.330322-1.7854C220.51983 155.577358 217.258608 153.792056 214 152a81028.421844 81028.421844 0 0 0-5.285156-2.878906c-6.974578-3.822077-13.88952-7.730921-20.671875-11.886719-1.946297-1.175965-3.921663-2.271242-5.917969-3.359375-4.082333-2.4494-6.604757-4.314272-8.125-8.875-.11482-2.221678-.169398-4.446623-.192871-6.671143l-.02478-2.04106c-.024798-2.227434-.041356-4.454804-.055787-6.682328l-.016132-2.30921c-.026707-4.033394-.04609-8.066758-.060528-12.100214-.01334-3.333938-.041196-6.667264-.08203-10.000977-.049362-4.030048-.074095-8.059542-.081197-12.08988-.006704-1.532991-.021906-3.06597-.04589-4.598789-.031718-2.149677-.03168-4.297222-.024281-6.447073l-.024506-3.700516c.894888-4.94367 3.447316-7.731881 7.478852-10.767501l1.781494-.942872 2.06836-1.121093L186.9375 44.375l2.361328-1.269531c1.681456-.903667 3.365641-1.80227 5.052246-2.69629 3.636133-1.934355 7.249076-3.910152 10.862793-5.885986a3000.528468 3000.528468 0 0 1 5.56836-3.03662c6.920712-3.764893 13.811022-7.58214 20.672851-11.45337 7.00806-3.926873 13.160908-5.927156 20.673828-2.302734Z" fill="#2A353B"/><path d="M284 216h16l1.171875 5.230469C305.014307 238.270615 305.014307 238.270615 310 255l.579102-2.18042C317.32443 227.467778 317.32443 227.467778 321 216h15c2.871543 8.455099 5.615634 16.88279 8.007813 25.488281C345.28495 246.008547 346.640549 250.503917 348 255c3.406057-12.982608 6.773878-25.97143 10-39h15c-2.302945 11.872323-5.142534 23.521372-8.346191 35.182617-2.796857 10.217367-5.276043 20.495466-7.65381 30.817383h-16c-3.298737-9.605149-6.27564-19.227717-8.943847-29.028076-.23896-.862141-.47792-1.724282-.72412-2.61255l-.633546-2.3291C330.003003 245.729507 330.003003 245.729507 328 243l-.917969 3.15625c-2.197567 7.52908-4.427624 15.045654-6.76953 22.53125l-.612062 1.957031c-1.19484 3.79964-2.440634 7.576055-3.70044 11.35547h-15c-2.020743-6.062233-3.719752-12.14415-5.375-18.3125-.312355-1.161205-.62471-2.322408-.946532-3.5188-1.894492-7.0934-3.690596-14.19742-5.321533-21.355713-1.377984-6.025478-2.979984-11.976587-4.62256-17.934082C284.000001 218 284.000001 218 284.000001 216Z" fill="#2C363C"/><path d="M248 45c3.948856 1.799312 7.717327 3.876868 11.5 6l3.205322 1.770752c6.11924 3.398749 12.209133 6.849995 18.232178 10.416748l1.859375 1.095703C286.876465 66.752933 286.876465 66.752933 288 69c.11394 1.361745.169266 2.728671.192871 4.09497l.048676 2.559403c.044468 3.864469.085515 7.728765.10855 11.59343.01656 2.037876.043849 4.075695.082032 6.11328.054781 2.93854.076643 5.875717.091307 8.814698l.068695 2.753006c-.015179 4.548365-.083225 6.432916-3.005219 10.097824C282.416068 117.445444 279.60053 119.266411 276 121l-3-1V82c-11.116274 4.524032-11.116274 4.524032-21 13-.108664 2.880074-.161386 5.740295-.175781 8.621094-.023193 1.757173-.04731 3.514335-.072266 5.271484-.035167 2.776205-.064487 5.551968-.07788 8.32837-.015442 2.675595-.05562 5.349892-.099854 8.025146l.005783 2.51915c-.122161 5.734553-.122161 5.734553-2.432297 8.258438-3.864066 1.756553-6.885637 1.436018-10.814697.004882C236 134 236 134 235.483398 130.082764c.01973-1.638685.063316-3.27719.125977-4.914795.012784-1.7858.024469-3.571608.035156-5.357422.045648-2.811756.105436-5.621912.187012-8.432861.728487-10.304572.728487-10.304572-2.409668-19.728516C231.0227 89.99009 228.72822 89.031452 226 88c-2.186352-1.13995-4.362916-2.298797-6.53125-3.472656-4.38028-2.26749-4.38028-2.26749-8.779297-4.498291-1.748305-.88056-3.484738-1.784566-5.220703-2.68921l-3.111328-1.582275C200 74 200 74 199.158202 71.29126L199.000001 69c4.376984-4.163473 6.749276-5.625884 13-6 3.253906 1.263428 3.253906 1.263428 6.5625 3.183594.594983.334355 1.189966.66871 1.802979 1.013199 1.888702 1.06289 3.76238 2.148946 5.634521 3.240707 1.872763 1.08681 3.747964 2.167291 5.634521 3.229996 1.71233.965011 3.412351 1.95177 5.111573 2.939682C240.4681 78.200368 242.989109 78.3671 247 78c3.574304-1.472148 3.574304-1.472148 6.9375-3.5l3.464844-1.96875L260 71v-2l-30-16v-3c1.673311-1.043928 3.364495-2.059237 5.0625-3.0625l2.847656-1.722656C241.98484 43.612788 243.755982 43.832357 248 45Z" fill="#FAFAFA"/><path d="M68 216h15c3.444543 3.555658 4.877443 5.708744 7 10 .759623 1.35512 1.528448 2.70511 2.304688 4.050781 1.920842 3.335677 3.795748 6.69277 5.639648 10.071533C99.249446 242.443684 100.62226 244.72115 102 247l1.313477-2.199707c1.62395-2.718012 3.249268-5.4352 4.875488-8.151856a4391.29844 4391.29844 0 0 0 2.100586-3.514648c1.01143-1.693889 2.024986-3.386505 3.038576-5.079102l1.84082-3.078613C117.03861 221.937246 119.02087 218.968697 121 216h15v66h-15l-1-37c-3.905944 6.865084-3.905944 6.865084-7.80835 13.732178l-1.468994 2.576416-1.507568 2.650146c-1.70012 2.85608-1.70012 2.85608-4.148682 3.736573-3.28853.564334-4.932636.565943-8.066406-.695313-3.81966-4.337016-6.351534-9.723205-8.900146-14.871826C86.841394 249.693102 85.410254 247.350422 84 245l-1 37H68v-66Z" fill="#2F393F"/><path d="M381 216h38v14h-23v12h22v14h-22v12h23v14h-38v-66Z" fill="#2A343A"/><path d="m226.3125 214.8125 2.166016.001953c5.239275.044443 5.239275.044443 7.521484 1.185547v14l-6.5-.1875c-9.271886.004512-9.271886.004512-17.054688 4.652344-4.946309 5.714803-4.864868 10.510047-4.722656 17.816406.366816 4.91843 1.113582 6.97219 4.277344 10.71875 5.601646 4.344133 9.774802 5.146408 16.6875 5.0625l2.126953-.013672c1.728552-.011759 3.45706-.029693 5.185547-.048828v14c-5.820812 2.910406-16.861715 1.708934-23-.125-9.09972-3.709219-16.518813-10.805742-20.375-19.8125-2.729-8.313129-3.388096-18.834268 0-27.0625.745796-1.359523 1.53793-2.694693 2.375-4l1.25-2.105469c6.85129-10.374255 18.055203-14.293466 30.0625-14.082031Z" fill="#2E383E"/><path d="M276 216v13l-3.246094.183594c-1.39715.084391-2.794285.16904-4.191406.253906l-2.142578.11914c-3.506826-.080396-3.506826-.080396-6.419922 1.44336-.73429 2.28461-.73429 2.28461 0 5 2.330835 2.326882 5.027368 4.098075 7.75 5.9375 5.715834 3.913226 10.552662 7.280752 12.976563 14.109375 1.012705 7.233612 1.179506 13.215434-3.238282 19.300781-4.73168 5.253282-10.532968 7.481232-17.46875 7.882813-1.402411-.003936-2.80483-.018414-4.20703-.04297l-2.154296-.001952C250.514307 283.158929 248.001906 283.000635 245 282v-14l3.867188-.148438c1.669293-.075024 3.338562-.150572 5.007812-.226562l2.550781-.09375 2.441407-.117188 2.253417-.095214C263.24011 267.145804 263.24011 267.145804 265 265c.50031-2.438783.50031-2.438783 0-5-1.67207-1.915876-1.67207-1.915876-4-3.4375l-2.480469-1.804688L256.000001 253c-9.805349-6.879144-9.805349-6.879144-12-12-.711696-6.22733-.988137-11.877338 1.6875-17.625 8.545392-8.77635 18.48136-10.332785 30.3125-7.375Z" fill="#2D373D"/><path d="M143 216h45v14h-15v52h-15v-52h-15v-14Z" fill="#293439"/><path d="M200 82c2.5.6875 2.5.6875 6 2l2.074219.648438C210.732305 85.798146 212.162336 86.732857 214 89c1.035202 5.456313.752671 10.787704.5 16.3125-.040151 1.518787-.07665 3.037675-.109375 4.55664-.087935 3.712398-.22584 7.420989-.390625 11.13086-3.192294-.742882-5.746342-1.786443-8.625-3.375l-2.351563-1.273438C201 115 201 115 199 112c-.24292-2.986816-.24292-2.986816-.230469-6.601563l.00586-3.921875.018798-2.038085c.018304-2.06295.020508-4.125454.020262-6.188477.045404-10.109857.045404-10.109857 1.185547-11.25Z" fill="#F8F9F9"/></svg>